<?xml version="1.0" standalone="no"?>
<!DOCTYPE svg PUBLIC "-//W3C//DTD SVG 20010904//EN" "http://www.w3.org/TR/2001/REC-SVG-20010904/DTD/svg10.dtd">
<svg version="1.0" xmlns="http://www.w3.org/2000/svg" width="373.000000pt" height="106.000000pt"
        viewBox="0 0 373.000000 106.000000" preserveAspectRatio="xMidYMid meet">

        <g transform="translate(0.000000,106.000000) scale(0.100000,-0.100000)" fill="#ffffff" stroke="none">
                <path d="M20 525 l0 -505 510 0 510 0 0 505 0 505 -510 0 -510 0 0 -505z m507
258 c63 -29 126 -98 147 -160 21 -62 21 -63 -18 -63 -30 0 -35 4 -41 29 -11
52 -62 111 -118 137 -120 55 -248 9 -303 -110 -28 -60 -30 -105 -8 -168 31
-91 113 -149 213 -149 65 -1 106 16 155 62 l31 29 -97 0 -98 0 0 35 0 35 115
0 c96 0 115 3 115 15 0 12 -19 15 -115 15 l-115 0 0 30 0 30 195 0 195 0 0
-30 c0 -29 -2 -30 -44 -30 -42 0 -45 -2 -51 -32 -20 -93 -91 -173 -185 -209
-169 -64 -361 45 -389 220 -38 242 196 419 416 314z m271 -2 c50 -26 107 -86
131 -141 31 -68 29 -180 -5 -248 -41 -82 -120 -140 -216 -157 -37 -7 -38 -7
-38 23 0 28 4 32 55 47 171 49 223 260 94 382 -36 34 -95 63 -129 63 -16 0
-20 7 -20 31 l0 32 45 -6 c25 -4 62 -15 83 -26z" />
                <path d="M3019 877 c-43 -33 -49 -83 -14 -121 60 -64 172 -6 151 80 -11 43
-99 70 -137 41z" />
                <path d="M1240 485 l0 -327 218 3 c215 4 218 4 275 33 74 36 97 71 97 146 0
63 -23 109 -67 136 -15 10 -30 19 -32 21 -3 2 7 16 21 31 37 40 48 65 48 115
0 59 -32 105 -95 137 -48 24 -59 25 -257 28 l-208 3 0 -326z m335 205 c74 -17
97 -83 44 -122 -20 -15 -49 -21 -128 -25 l-101 -6 0 82 0 81 73 0 c39 0 90 -5
112 -10z m79 -281 c33 -26 36 -77 5 -105 -18 -16 -40 -20 -145 -22 l-124 -4 0
76 0 76 119 0 c105 0 121 -2 145 -21z" />
                <path d="M3290 710 l0 -60 -35 0 -35 0 0 -55 0 -55 34 0 34 0 4 -133 c4 -144
15 -179 70 -220 47 -35 211 -36 224 -2 3 8 -2 34 -11 58 -16 44 -17 44 -46 33
-24 -8 -35 -8 -57 5 -27 15 -27 16 -30 137 l-3 122 61 0 60 0 0 55 0 55 -60 0
-60 0 0 60 0 60 -75 0 -75 0 0 -60z" />
                <path d="M2051 660 c-24 -5 -63 -19 -87 -30 l-43 -21 27 -50 c19 -35 31 -47
42 -43 59 25 91 33 133 34 41 0 53 -5 78 -29 49 -49 41 -57 -63 -65 -119 -8
-158 -19 -192 -55 -68 -71 -42 -188 51 -227 70 -30 207 -11 232 33 9 15 10 13
11 -14 l0 -33 71 0 71 0 -4 178 c-5 189 -13 226 -59 269 -53 48 -175 72 -268
53z m179 -318 c0 -65 -76 -106 -145 -78 -29 12 -35 20 -35 45 0 44 31 61 112
61 68 0 68 0 68 -28z" />
                <path d="M2623 660 c-61 -13 -101 -37 -123 -73 -31 -49 -35 -92 -15 -137 22
-48 70 -74 170 -91 39 -6 80 -16 93 -22 27 -13 29 -43 3 -57 -32 -17 -136 -12
-193 10 -28 11 -53 19 -54 17 -3 -4 -44 -99 -44 -103 0 -2 30 -12 66 -24 89
-27 223 -27 279 0 56 27 73 42 90 83 19 46 19 68 -1 110 -22 46 -56 64 -164
86 -51 10 -99 26 -107 34 -43 43 46 78 136 54 31 -7 63 -17 72 -21 16 -7 19
-2 56 90 12 30 -180 62 -264 44z" />
                <path d="M3000 410 l0 -250 70 0 70 0 0 250 0 250 -70 0 -70 0 0 -250z" />
        </g>
</svg>